<svg xmlns="http://www.w3.org/2000/svg" xmlns:xlink="http://www.w3.org/1999/xlink" width="512" zoomAndPan="magnify" viewBox="0 0 384 383.999986" height="512" preserveAspectRatio="xMidYMid meet" version="1.0"><defs><g/><clipPath id="70f702490f"><path d="M 20.175781 20.175781 L 363.824219 20.175781 L 363.824219 363.824219 L 20.175781 363.824219 Z M 20.175781 20.175781 " clip-rule="nonzero"/></clipPath><clipPath id="ff5c08d2c7"><path d="M 192 20.175781 C 97.105469 20.175781 20.175781 97.105469 20.175781 192 C 20.175781 286.894531 97.105469 363.824219 192 363.824219 C 286.894531 363.824219 363.824219 286.894531 363.824219 192 C 363.824219 97.105469 286.894531 20.175781 192 20.175781 " clip-rule="nonzero"/></clipPath></defs><g clip-path="url(#70f702490f)"><g clip-path="url(#ff5c08d2c7)"><path fill="#050505" d="M 20.175781 20.175781 L 363.824219 20.175781 L 363.824219 363.824219 L 20.175781 363.824219 Z M 20.175781 20.175781 " fill-opacity="1" fill-rule="nonzero"/></g></g><g fill="#bff101" fill-opacity="1"><g transform="translate(69.591146, 275.071969)"><g><path d="M 154.828125 -208.0625 L 244.796875 0 L 111.046875 0 L 73.5 -89.703125 L 54.578125 -89.703125 L 91.328125 0 L 4.328125 0 L 48.640625 -104.84375 L 67.015625 -104.84375 L 58.09375 -126.71875 L 92.671875 -208.0625 Z M 154.828125 -208.0625 "/></g></g></g></svg>